<svg xmlns="http://www.w3.org/2000/svg" width="26" height="21" viewBox="0 0 26 21">
    <g fill="none" fill-rule="evenodd">
        <g fill="currentColor" fill-rule="nonzero">
            <g>
                <path d="M25.425 8.722L17.407.564c-.739-.752-1.97-.752-2.71 0-.738.751-.738 2.004 0 2.756l4.735 4.845H1.916C.849 8.165 0 9.03 0 10.115c0 1.085.849 1.949 1.916 1.949h17.516l-4.735 4.817c-.74.751-.74 2.004 0 2.756.382.39.875.585 1.368.585.493 0 .986-.194 1.368-.585l7.992-8.13c.356-.362.575-.864.575-1.392 0-.53-.191-1.03-.575-1.393z" transform="matrix(-1 0 0 1 26 0)"/>
            </g>
        </g>
    </g>
</svg>
