<svg xmlns="http://www.w3.org/2000/svg" width="80" height="79" viewBox="0 0 80 79">
    <g fill="none" fill-rule="evenodd">
        <g fill="#525252">
            <g>
                <g>
                    <g>
                        <path d="M48.51 14.043c1.175 0 2.128-.953 2.128-2.128 0-1.174-.953-2.128-2.127-2.128-1.175 0-2.128.954-2.128 2.128 0 1.175.953 2.128 2.128 2.128M29.787 7.66h2.553v2.553c0 .936.766 1.702 1.703 1.702.936 0 1.702-.766 1.702-1.702V7.66h2.553c.936 0 1.702-.766 1.702-1.702 0-.937-.766-1.703-1.702-1.703h-2.553V1.702C35.745.766 34.979 0 34.043 0c-.937 0-1.703.766-1.703 1.702v2.553h-2.553c-.936 0-1.702.766-1.702 1.703 0 .936.766 1.702 1.702 1.702M57.447 5.958c1.174 0 2.127-.954 2.127-2.128 0-1.175-.953-2.128-2.127-2.128-1.175 0-2.128.953-2.128 2.128 0 1.174.953 2.128 2.128 2.128M65.106 11.49c.707 0 1.277.57 1.277 1.276 0 .707-.57 1.277-1.277 1.277-.706 0-1.276-.57-1.276-1.277 0-.706.57-1.276 1.276-1.276m0 5.957c2.58 0 4.681-2.102 4.681-4.68 0-2.58-2.102-4.682-4.68-4.682-2.58 0-4.681 2.102-4.681 4.681s2.102 4.681 4.68 4.681M8.085 26.783c.706 0 1.277.57 1.277 1.277 0 .706-.57 1.276-1.277 1.276-.706 0-1.276-.57-1.276-1.276 0-.707.57-1.277 1.276-1.277m0 5.957c2.579 0 4.681-2.102 4.681-4.68 0-2.58-2.102-4.681-4.68-4.681-2.58 0-4.682 2.102-4.682 4.68 0 2.58 2.102 4.681 4.681 4.681M64.255 40.332c-1.174 0-2.127.953-2.127 2.127 0 1.175.953 2.128 2.127 2.128 1.175 0 2.128-.953 2.128-2.128 0-1.174-.953-2.127-2.128-2.127M68.51 28.298v2.553h-2.553c-.936 0-1.702.766-1.702 1.702 0 .937.766 1.702 1.702 1.702h2.554v2.554c0 .936.766 1.702 1.702 1.702.936 0 1.702-.766 1.702-1.702v-2.554h2.553c.936 0 1.702-.765 1.702-1.702 0-.936-.766-1.702-1.702-1.702h-2.553v-2.553c0-.936-.766-1.702-1.702-1.702-.936 0-1.702.766-1.702 1.702M67.234 67.243c.936 0 1.702-.766 1.702-1.703v-5.957c0-.936-.766-1.702-1.702-1.702-.936 0-1.702.766-1.702 1.702v5.957c0 .937.766 1.703 1.702 1.703M57.447 57.88c-.936 0-1.702.767-1.702 1.703v5.957c0 .937.766 1.703 1.702 1.703.936 0 1.702-.766 1.702-1.703v-5.957c0-.945-.766-1.702-1.702-1.702M73.191 67.243c.937 0 1.703-.766 1.703-1.703v-5.957c0-.936-.766-1.702-1.703-1.702-.936 0-1.702.766-1.702 1.702v5.957c0 .937.766 1.703 1.702 1.703" transform="translate(-812 -396) translate(745 361) translate(67 29) translate(0 6)"/>
                        <path d="M76.596 71.498H63.83v-6.06c0-.936-.766-1.702-1.702-1.702-.937 0-1.702.766-1.702 1.702v8.613h-5.958V53.626h5.958v6.706c0 .936.765 1.702 1.702 1.702.936 0 1.702-.766 1.702-1.702v-6.706h12.766v17.872zM51.064 45.115h-4.996c-.936 0-1.702.766-1.702 1.702 0 .936.766 1.702 1.702 1.702h4.996v19.575H48.51V53.626c.936 0 1.702-.766 1.702-1.703 0-.936-.766-1.702-1.702-1.702H31.489c-.936 0-1.702.766-1.702 1.702 0 .937.766 1.703 1.702 1.703v14.468h-2.553V48.519h12.026c.936 0 1.702-.766 1.702-1.702 0-.936-.766-1.702-1.702-1.702H28.936v-2.553h4.434c.936 0 1.702-.766 1.702-1.702 0-.937-.766-1.703-1.702-1.703h-1.455c.57-3.948 3.974-7.004 8.085-7.004 4.11 0 7.515 3.047 8.085 7.004h-9.608c-.937 0-1.703.766-1.703 1.703 0 .936.766 1.702 1.703 1.702h12.587v2.553zm-9.362 22.979h3.404V53.626h-3.404v14.468zm-6.808 0h3.404V53.626h-3.404v14.468zm3.327-40.877h3.558v1.685c-.579-.093-1.175-.153-1.779-.153-.604 0-1.2.06-1.779.153v-1.685zM19.574 74.051h5.958V53.626h-5.958V74.05zm-16.17-2.553h1.702V53.626H3.404v17.872zM78.298 50.22h-23.83V48.52h.851c.936 0 1.702-.766 1.702-1.702 0-.936-.766-1.702-1.702-1.702h-.85V40.86c0-.937-.767-1.703-1.703-1.703h-1.243c-.408-4.017-2.885-7.43-6.34-9.166v-2.774c0-1.88-1.523-3.404-3.404-3.404h-.077V19.88c0-.936-.766-1.702-1.702-1.702-.936 0-1.702.766-1.702 1.702v3.932h-.077c-1.88 0-3.404 1.523-3.404 3.404v2.774c-3.455 1.737-5.932 5.15-6.34 9.166h-1.243c-.936 0-1.702.766-1.702 1.703v4.255h-.851c-.936 0-1.702.766-1.702 1.702 0 .936.766 1.702 1.702 1.702h.85v1.702H15.32c-.936 0-1.702.766-1.702 1.702 0 .937.766 1.703 1.702 1.703h.851v17.872H8.51V53.626h1.703c.936 0 1.702-.766 1.702-1.703 0-.936-.766-1.702-1.702-1.702h-8.51c-.937 0-1.703.766-1.703 1.702V73.2c0 .936.766 1.702 1.702 1.702H16.17v.851c0 .936.766 1.702 1.702 1.702H32.01c.936 0 1.702-.766 1.702-1.702 0-.936-.766-1.702-1.702-1.702h-3.073v-2.553h22.128v2.553H37.106c-.936 0-1.702.766-1.702 1.702 0 .936.766 1.702 1.702 1.702h25.022c.936 0 1.702-.766 1.702-1.702v-.85h14.468c.936 0 1.702-.767 1.702-1.703V51.923c0-.944-.766-1.702-1.702-1.702zM11.064 8.564c1.174 0 2.127-.954 2.127-2.128 0-1.175-.953-2.128-2.127-2.128-1.175 0-2.128.953-2.128 2.128 0 1.174.953 2.128 2.128 2.128" transform="translate(-812 -396) translate(745 361) translate(67 29) translate(0 6)"/>
                        <path d="M16.247 38.383c0 1.174.953 2.127 2.127 2.127 1.175 0 2.128-.953 2.128-2.127 0-1.175-.953-2.128-2.128-2.128-1.174 0-2.127.953-2.127 2.128M19.149 19.148c0 1.174.953 2.128 2.128 2.128 1.174 0 2.127-.954 2.127-2.128 0-1.175-.953-2.128-2.127-2.128-1.175 0-2.128.953-2.128 2.128M22.553 67.243c.936 0 1.702-.766 1.702-1.703v-5.957c0-.945-.766-1.702-1.702-1.702-.936 0-1.702.766-1.702 1.702v5.957c0 .937.766 1.703 1.702 1.703M11.064 59.583v5.957c0 .937.766 1.703 1.702 1.703.936 0 1.702-.766 1.702-1.703v-5.957c0-.936-.766-1.702-1.702-1.702-.936 0-1.702.757-1.702 1.702" transform="translate(-812 -396) translate(745 361) translate(67 29) translate(0 6)"/>
                    </g>
                </g>
            </g>
        </g>
    </g>
</svg>
