<svg xmlns="http://www.w3.org/2000/svg" xmlns:xlink="http://www.w3.org/1999/xlink" width="39" height="38" viewBox="0 0 39 38">
    <defs>
        <path id="yl1i2vgcia" d="M.234 2.195c0 1.207.98 2.186 2.186 2.186s2.19-.98 2.19-2.186S3.63.005 2.42.005.234.985.234 2.195zm1.591 0c0-.326.268-.599.595-.599.33 0 .595.269.595.6 0 .33-.269.594-.595.594-.33 0-.595-.268-.595-.595z"/>
        <path id="1pfqrmj82c" d="M.4 2.576c0 1.206.98 2.186 2.186 2.186s2.19-.98 2.19-2.186-.98-2.19-2.19-2.19S.4 1.366.4 2.576zm1.59 0c0-.327.27-.599.596-.599.33 0 .594.268.594.599 0 .33-.268.595-.594.595-.331 0-.595-.268-.595-.595z"/>
        <path id="lvgg1esdve" d="M2.25 1.219v1.193H1.058c-.44 0-.796.356-.796.795 0 .44.357.796.796.796H2.25v1.194c0 .44.355.795.795.795.44 0 .795-.356.795-.795V4.003h1.194c.44 0 .795-.355.795-.796 0-.439-.355-.795-.795-.795H3.84V1.219c0-.44-.355-.796-.795-.796-.44 0-.795.356-.795.796z"/>
        <path id="nu6yj2m9eg" d="M.134 1.376c0 .55.445.996.996.996.55 0 .996-.446.996-.996 0-.551-.446-.997-.996-.997s-.996.446-.996.997z"/>
        <path id="owkyxat4li" d="M.421 1.08c0 .55.447.996.997.996s.996-.446.996-.996-.446-.997-.996-.997S.421.53.421 1.08z"/>
        <path id="yjmc7teh6k" d="M.38 1.371c0 .55.446.997.997.997.55 0 .997-.446.997-.997 0-.55-.447-.996-.997-.996S.38.82.38 1.37z"/>
        <path id="f2okk30l7m" d="M.37 1.266c0 .55.446.996.996.996s.997-.446.997-.996-.446-.997-.997-.997C.816.27.37.716.37 1.266z"/>
        <path id="x79fsykzao" d="M.257 1.007c0 .55.446.997.997.997.55 0 .996-.446.996-.997 0-.55-.446-.997-.996-.997s-.997.446-.997.997z"/>
        <path id="y4arena3fq" d="M.34 1.213c0 .55.446.997.997.997.55 0 .996-.447.996-.997S1.887.216 1.337.216.34.663.34 1.213z"/>
        <path id="xid9hs1i0s" d="M.026 1.286c0 .55.446.997.997.997.55 0 .996-.446.996-.997 0-.55-.446-.997-.996-.997s-.997.447-.997.997z"/>
    </defs>
    <g fill="none" fill-rule="evenodd">
        <g>
            <g>
                <g fill="#484848">
                    <path d="M30.272 19.379l-.863.863-1.576-1.62.841-.841c.214-.214.497-.332.799-.332.301 0 .585.118.799.332.213.213.33.496.33.799 0 .302-.117.586-.33.799zM17.625 32.026l-1.6-1.6 9.965-9.96 1.597 1.597-9.962 9.963zm6.524-1.315c0 .725-.59 1.315-1.314 1.315h-2.6l3.914-3.914v2.6zm-8.764 3.554l-1.917.32.32-1.918.934-.933 1.598 1.597-.935.934zm-3.112-2.694c-.126.126-.211.283-.249.455H3.498c-.725 0-1.314-.59-1.314-1.315V5.627c0-.709.563-1.288 1.266-1.314-.405.396-.649.945-.649 1.54v.821c0 1.188.966 2.155 2.155 2.155.96 0 1.774-.631 2.052-1.5.278.869 1.093 1.5 2.053 1.5s1.775-.631 2.053-1.5c.278.869 1.093 1.5 2.053 1.5s1.774-.631 2.052-1.5c.278.869 1.093 1.5 2.053 1.5s1.775-.631 2.052-1.5c.279.869 1.094 1.5 2.054 1.5 1.187 0 2.154-.967 2.154-2.155v-.82c0-.596-.244-1.145-.65-1.54.704.025 1.267.604 1.267 1.313v14.068l-1.898 1.899V12.01c0-.509-.414-.923-.923-.923-.509 0-.923.414-.923.923V23.44l-5.302 5.302H5.928v-16.73c0-.51-.414-.924-.923-.924-.51 0-.923.414-.923.923v17.654c0 .508.414.923.923.923H13.257l-.984.983zM4.647 5.853c0-.17.139-.309.309-.309.17 0 .308.139.308.31v.82c0 .17-.139.309-.308.309-.17 0-.31-.139-.31-.309v-.82zm2.91-1.54c-.251.244-.441.548-.549.886-.108-.338-.297-.642-.548-.886h1.096zm1.196 1.54c0-.17.138-.309.308-.309.17 0 .309.139.309.31v.82c0 .17-.139.309-.31.309-.17 0-.307-.139-.307-.309v-.82zm2.909-1.54c-.251.245-.44.549-.548.886-.108-.337-.297-.641-.548-.886h1.096zm1.196 1.54c0-.17.138-.309.309-.309.17 0 .308.139.308.31v.82c0 .17-.139.309-.308.309-.17 0-.31-.139-.31-.309v-.82zm2.91-1.54c-.251.244-.441.548-.549.886-.108-.338-.297-.642-.548-.886h1.096zm1.195 1.54c0-.17.138-.309.309-.309.17 0 .309.139.309.31v.82c0 .17-.139.309-.31.309-.17 0-.308-.139-.308-.309v-.82zm2.91-1.54c-.251.244-.44.548-.549.886-.107-.338-.297-.642-.548-.886h1.097zm1.195 1.54c0-.17.14-.309.31-.309.17 0 .308.139.308.31v.82c0 .17-.139.309-.308.309-.17 0-.31-.139-.31-.309v-.82zm10.51 10.623c-.563-.563-1.31-.872-2.105-.872-.794 0-1.542.31-2.104.872l-1.374 1.374V5.627c0-1.742-1.417-3.16-3.16-3.16H22.3V.927c0-.51-.414-.923-.922-.923-.51 0-.924.413-.924.922v1.54h-2.26V.927c0-.509-.413-.922-.922-.922-.51 0-.923.413-.923.922v1.54h-2.26V.927c0-.509-.414-.922-.922-.922-.51 0-.924.413-.924.922v1.54h-2.26V.927c0-.509-.413-.922-.922-.922-.51 0-.923.413-.923.922v1.54h-2.26V.927c0-.509-.414-.922-.922-.922-.51 0-.924.413-.924.922v1.54h-.534c-1.743 0-3.16 1.419-3.16 3.161v25.084c0 1.743 1.417 3.16 3.16 3.16h8.218l-.28 1.685c-.046.268.03.54.205.748.176.207.432.327.703.327.05 0 .102-.005.153-.013l3.484-.58c.19-.033.364-.122.5-.258l1.908-1.908h4.446c1.743 0 3.16-1.418 3.16-3.16v-4.446l5.582-5.582c1.16-1.16 1.16-3.048 0-4.208z" transform="translate(-1322 -21) translate(1322 21) translate(4.697 .273)"/>
                    <path d="M8.154 13.918c-.384 0-.697-.414-.697-.923 0-.509.313-.922.697-.922h9.925c.385 0 .697.413.697.922 0 .51-.312.923-.697.923H8.154zM8.154 17.15c-.384 0-.697-.415-.697-.923 0-.51.313-.923.697-.923h9.925c.385 0 .697.414.697.923 0 .508-.312.923-.697.923H8.154zM8.154 20.38c-.384 0-.697-.413-.697-.922 0-.51.313-.923.697-.923h9.925c.385 0 .697.414.697.923 0 .509-.312.922-.697.922H8.154zM8.154 23.612c-.384 0-.697-.414-.697-.923 0-.509.313-.923.697-.923h5.273c.385 0 .697.414.697.923 0 .51-.312.923-.697.923H8.154zM8.154 26.843c-.384 0-.697-.414-.697-.923 0-.51.313-.923.697-.923h3.102c.384 0 .697.414.697.923 0 .509-.313.923-.697.923H8.154zM30.6 5.662c1.206 0 2.19-.98 2.19-2.186s-.98-2.19-2.19-2.19-2.186.98-2.186 2.19c0 1.206.98 2.186 2.186 2.186m0-2.785c.33 0 .595.268.595.6 0 .33-.269.594-.595.594-.33 0-.595-.268-.595-.595 0-.326.268-.599.595-.599" transform="translate(-1322 -21) translate(1322 21) translate(4.697 .273)"/>
                </g>
                <g transform="translate(-1322 -21) translate(1322 21) translate(32.876 1.554)">
                    <mask id="5u9lzyg9fb" fill="#fff">
                        <use xlink:href="#yl1i2vgcia"/>
                    </mask>
                    <path fill="#484848" d="M-1308.817 935.103L32.76 935.103 32.76 -18.908 -1308.817 -18.908z" mask="url(#5u9lzyg9fb)"/>
                    <path fill="#484848" d="M-4.424 9.039L9.268 9.039 9.268 -4.653 -4.424 -4.653z" mask="url(#5u9lzyg9fb)"/>
                </g>
                <path fill="#484848" d="M3.44 37.484c1.206 0 2.19-.98 2.19-2.185 0-1.206-.98-2.19-2.19-2.19s-2.186.98-2.186 2.19c0 1.205.98 2.185 2.186 2.185m0-2.784c.33 0 .594.267.594.599 0 .33-.268.594-.594.594-.331 0-.595-.268-.595-.594 0-.327.268-.599.595-.599" transform="translate(-1322 -21) translate(1322 21)"/>
                <g transform="translate(-1322 -21) translate(1322 21) translate(.854 32.723)">
                    <mask id="dxla1mktkd" fill="#fff">
                        <use xlink:href="#1pfqrmj82c"/>
                    </mask>
                    <path fill="#484848" d="M-1308.652 935.483L32.926 935.483 32.926 -18.528 -1308.652 -18.528z" mask="url(#dxla1mktkd)"/>
                    <path fill="#484848" d="M-4.259 9.42L9.434 9.42 9.434 -4.272 -4.259 -4.272z" mask="url(#dxla1mktkd)"/>
                </g>
                <path fill="#484848" d="M33.08 30.321h1.193v1.194c0 .44.356.795.795.795.44 0 .796-.356.796-.795V30.32h1.193c.44 0 .796-.355.796-.795 0-.44-.356-.796-.796-.796h-1.193v-1.193c0-.44-.356-.796-.796-.796-.44 0-.795.356-.795.796v1.193h-1.194c-.439 0-.795.356-.795.796 0 .44.356.795.795.795" transform="translate(-1322 -21) translate(1322 21)"/>
                <g transform="translate(-1322 -21) translate(1322 21) translate(32.022 26.318)">
                    <mask id="cmrho0c7cf" fill="#fff">
                        <use xlink:href="#lvgg1esdve"/>
                    </mask>
                    <path fill="#484848" d="M-1284.337 932.878L57.241 932.878 57.241 -21.133 -1284.337 -21.133z" mask="url(#cmrho0c7cf)"/>
                    <path fill="#484848" d="M-4.397 10.65L10.488 10.65 10.488 -4.235 -4.397 -4.235z" mask="url(#cmrho0c7cf)"/>
                </g>
                <path fill="#484848" d="M33.152 11.185c.55 0 .997-.447.997-.997s-.446-.997-.997-.997c-.55 0-.996.447-.996.997s.446.997.996.997" transform="translate(-1322 -21) translate(1322 21)"/>
                <g transform="translate(-1322 -21) translate(1322 21) translate(32.022 8.813)">
                    <mask id="smgkp784oh" fill="#fff">
                        <use xlink:href="#nu6yj2m9eg"/>
                    </mask>
                    <path fill="#484848" d="M-1289.536 923.941L52.042 923.941 52.042 -30.07 -1289.536 -30.07z" mask="url(#smgkp784oh)"/>
                    <path fill="#484848" d="M-4.525 7.03L6.784 7.03 6.784 -4.279 -4.525 -4.279z" mask="url(#smgkp784oh)"/>
                </g>
                <path fill="#484848" d="M36.856 14.731c.55 0 .997-.446.997-.996s-.446-.997-.997-.997c-.55 0-.996.447-.996.997s.446.996.996.996" transform="translate(-1322 -21) translate(1322 21)"/>
                <g transform="translate(-1322 -21) translate(1322 21) translate(35.438 12.655)">
                    <mask id="o7q4slbknj" fill="#fff">
                        <use xlink:href="#owkyxat4li"/>
                    </mask>
                    <path fill="#484848" d="M-1289.247 923.645L52.33 923.645 52.33 -30.366 -1289.247 -30.366z" mask="url(#o7q4slbknj)"/>
                    <path fill="#484848" d="M-4.237 6.734L7.073 6.734 7.073 -4.575 -4.237 -4.575z" mask="url(#o7q4slbknj)"/>
                </g>
                <path fill="#484848" d="M37.669 25.27c.55 0 .996-.446.996-.996s-.446-.997-.996-.997-.997.446-.997.997c0 .55.447.996.997.996" transform="translate(-1322 -21) translate(1322 21)"/>
                <g transform="translate(-1322 -21) translate(1322 21) translate(36.292 22.902)">
                    <mask id="3shf5kym3l" fill="#fff">
                        <use xlink:href="#yjmc7teh6k"/>
                    </mask>
                    <path fill="#484848" d="M-1289.289 923.937L52.289 923.937 52.289 -30.074 -1289.289 -30.074z" mask="url(#3shf5kym3l)"/>
                    <path fill="#484848" d="M-4.278 7.026L7.031 7.026 7.031 -4.283 -4.278 -4.283z" mask="url(#3shf5kym3l)"/>
                </g>
                <path fill="#484848" d="M32.535 36.693c.55 0 .996-.446.996-.997 0-.55-.446-.996-.996-.996s-.997.446-.997.996.447.997.997.997" transform="translate(-1322 -21) translate(1322 21)"/>
                <g transform="translate(-1322 -21) translate(1322 21) translate(31.169 34.43)">
                    <mask id="r1fomxxbfn" fill="#fff">
                        <use xlink:href="#f2okk30l7m"/>
                    </mask>
                    <path fill="#484848" d="M-1289.299 923.831L52.279 923.831 52.279 -30.18 -1289.299 -30.18z" mask="url(#r1fomxxbfn)"/>
                    <path fill="#484848" d="M-4.288 6.92L7.021 6.92 7.021 -4.389 -4.288 -4.389z" mask="url(#r1fomxxbfn)"/>
                </g>
                <path fill="#484848" d="M1.254 17.647c.55 0 .996-.446.996-.996s-.446-.997-.996-.997-.997.447-.997.997.446.996.997.996" transform="translate(-1322 -21) translate(1322 21)"/>
                <g transform="translate(-1322 -21) translate(1322 21) translate(0 15.644)">
                    <mask id="s93rb4kidp" fill="#fff">
                        <use xlink:href="#x79fsykzao"/>
                    </mask>
                    <path fill="#484848" d="M-1289.412 923.572L52.166 923.572 52.166 -30.439 -1289.412 -30.439z" mask="url(#s93rb4kidp)"/>
                    <path fill="#484848" d="M-4.401 6.662L6.908 6.662 6.908 -4.648 -4.401 -4.648z" mask="url(#s93rb4kidp)"/>
                </g>
                <path fill="#484848" d="M11.157 37.494c.55 0 .997-.446.997-.997 0-.55-.447-.996-.997-.996s-.997.446-.997.996.447.997.997.997" transform="translate(-1322 -21) translate(1322 21)"/>
                <g transform="translate(-1322 -21) translate(1322 21) translate(9.82 35.284)">
                    <mask id="kebipken8r" fill="#fff">
                        <use xlink:href="#y4arena3fq"/>
                    </mask>
                    <path fill="#484848" d="M-1289.329 923.778L52.249 923.778 52.249 -30.233 -1289.329 -30.233z" mask="url(#kebipken8r)"/>
                    <path fill="#484848" d="M4.102 -4.442L4.102 -3.828 4.102 -4.442 -4.318 -4.442 -4.318 6.867 6.992 6.867 6.992 -4.442z" mask="url(#kebipken8r)"/>
                </g>
                <path fill="#484848" d="M4.438 2.556c.55 0 .997-.446.997-.997 0-.55-.446-.996-.997-.996-.55 0-.996.446-.996.996s.446.997.996.997" transform="translate(-1322 -21) translate(1322 21)"/>
                <g transform="translate(-1322 -21) translate(1322 21) translate(3.416 .273)">
                    <mask id="uzf0h2r5pt" fill="#fff">
                        <use xlink:href="#xid9hs1i0s"/>
                    </mask>
                    <path fill="#484848" d="M-1289.643 923.851L51.935 923.851 51.935 -30.16 -1289.643 -30.16z" mask="url(#uzf0h2r5pt)"/>
                    <path fill="#484848" d="M-4.632 6.941L6.677 6.941 6.677 -4.369 -4.632 -4.369z" mask="url(#uzf0h2r5pt)"/>
                </g>
            </g>
        </g>
    </g>
</svg>
