<svg xmlns="http://www.w3.org/2000/svg" xmlns:xlink="http://www.w3.org/1999/xlink" viewBox="0 0 102 100">
    <defs>
        <path id="m3vnwjm5ua" d="M0.678 0.119L6.089 0.119 6.089 5.53 0.678 5.53z"/>
        <path id="keg40vggzc" d="M0.111 100L100.111 100 100.111 0 0.111 0z"/>
    </defs>
    <g fill="none" fill-rule="evenodd">
        <g>
            <g transform="translate(-993 -301) translate(993.487 301)">
                <path fill="#525252" d="M92.968 41.913c.882 0 1.594.712 1.594 1.593 0 .882-.712 1.594-1.594 1.594-.882 0-1.594-.712-1.594-1.594 0-.881.712-1.593 1.594-1.593m-5.844 1.593c0 3.22 2.625 5.845 5.844 5.845 3.22 0 5.844-2.625 5.844-5.845 0-3.22-2.625-5.844-5.844-5.844-3.219 0-5.844 2.625-5.844 5.844M42.318 5.549c.882 0 1.594.712 1.594 1.594 0 .882-.712 1.594-1.594 1.594-.882 0-1.594-.712-1.594-1.594 0-.882.712-1.594 1.594-1.594m-5.844 1.594c0 3.22 2.625 5.844 5.844 5.844 3.22 0 5.844-2.625 5.844-5.844 0-3.22-2.624-5.844-5.844-5.844s-5.844 2.624-5.844 5.844M87.124 51.948c-1.434 0-2.598 1.163-2.598 2.597s1.164 2.598 2.598 2.598c1.433 0 2.597-1.164 2.597-2.598s-1.164-2.597-2.597-2.597M78.96 15.213h3.34v3.34c0 1.224 1.002 2.226 2.226 2.226 1.226 0 2.226-1.002 2.226-2.226v-3.34h3.34c1.226 0 2.226-1.001 2.226-2.226 0-1.224-1-2.226-2.226-2.226h-3.34V7.42c0-1.224-1-2.226-2.226-2.226-1.224 0-2.226 1.002-2.226 2.226v3.34h-3.34c-1.224 0-2.226 1.002-2.226 2.226 0 1.225 1.002 2.226 2.226 2.226"/>
                <g transform="translate(71.54)">
                    <mask id="9cqjik46ib" fill="#fff">
                        <use xlink:href="#m3vnwjm5ua"/>
                    </mask>
                    <path fill="#000" d="M3.383 5.53c1.494 0 2.706-1.212 2.706-2.705C6.09 1.33 4.877.119 3.383.119 1.89.119.678 1.33.678 2.825c0 1.493 1.212 2.705 2.705 2.705" mask="url(#9cqjik46ib)"/>
                </g>
                <path fill="#525252" d="M78.033 29.87c0 1.434 1.163 2.598 2.597 2.598s2.597-1.164 2.597-2.598-1.163-2.597-2.597-2.597-2.597 1.153-2.597 2.597M61.15 18.182c0 1.434 1.163 2.597 2.597 2.597s2.597-1.163 2.597-2.597-1.163-2.598-2.597-2.598-2.598 1.154-2.598 2.598M4.934 32.096h3.34v3.34c0 1.224 1.002 2.226 2.226 2.226 1.225 0 2.226-1.002 2.226-2.226v-3.34h3.34c1.224 0 2.226-1.001 2.226-2.226 0-1.224-1.002-2.226-2.226-2.226h-3.34v-3.34c0-1.224-1.001-2.226-2.226-2.226-1.224 0-2.226 1.002-2.226 2.226v3.34h-3.34c-1.224 0-2.226 1.002-2.226 2.226 0 1.225 1.002 2.226 2.226 2.226M5.305 45.455c1.434 0 2.598-1.164 2.598-2.598S6.739 40.26 5.305 40.26c-1.433 0-2.597 1.163-2.597 2.597s1.164 2.598 2.597 2.598"/>
                <mask id="mn0u16coxd" fill="#fff">
                    <use xlink:href="#keg40vggzc"/>
                </mask>
                <path fill="#525252" d="M70.575 86.679H75.1v-4.527h-4.526v4.527zm8.756 2.115v-8.757c0-1.163-.952-2.115-2.115-2.115H68.46c-1.165 0-2.116.952-2.116 2.115v8.757c0 1.163.951 2.115 2.116 2.115h8.756c1.174 0 2.115-.941 2.115-2.115z" mask="url(#mn0u16coxd)"/>
                <path fill="#525252" d="M94.048 65.645l-18.95-7.986V50.5c0-1.196-.966-2.174-2.149-2.174-1.18 0-2.148.978-2.148 2.174v5.345l-21.161-8.92c-.527-.229-1.128-.229-1.655 0L3.576 65.644c-1.385.587-2.46 1.673-3.04 3.085-.569 1.402-.569 2.945.01 4.346.903 2.185 2.998 3.5 5.2 3.5.72 0 1.45-.142 2.149-.436l.097-.043v21.73c0 1.195.966 2.173 2.148 2.173h64.228c1.18 0 2.149-.978 2.149-2.173 0-1.194-.968-2.173-2.149-2.173H60.522V79.487c0-2.368-.69-4.661-1.999-6.617-.666-1-1.999-1.25-2.987-.587-.988.674-1.246 2.021-.58 3.02.828 1.24 1.269 2.684 1.269 4.184v16.167H41.4V79.487c0-4.129 3.32-7.497 7.412-7.497.88 0 1.74.152 2.557.456 1.117.413 2.353-.163 2.76-1.293.409-1.13-.161-2.38-1.279-2.792-1.289-.477-2.642-.717-4.028-.717-6.455 0-11.708 5.313-11.708 11.843v16.167H12.288V74.282l11.43-4.812c1.096-.456 1.612-1.74 1.16-2.847-.461-1.109-1.708-1.63-2.814-1.174L9.313 70.817s-.012 0-.012.012l-3.05 1.28c-.677.283-1.451-.043-1.73-.717-.139-.326-.139-.695 0-1.02.13-.327.387-.587.71-.729l43.581-18.35 43.582 18.372c.322.141.58.392.72.728.129.326.129.695 0 1.022-.14.325-.387.587-.72.727-.323.132-.689.132-1.01 0l-3.05-1.282h-.011L49.65 54.562c-.526-.228-1.128-.228-1.654 0l-14.051 5.922c-1.096.456-1.611 1.74-1.16 2.847.46 1.108 1.719 1.63 2.814 1.173l13.213-5.606 36.524 15.395v21.361h-4.522c-1.182 0-2.149.979-2.149 2.173 0 1.195.967 2.173 2.149 2.173h6.67c1.181 0 2.15-.978 2.15-2.173v-21.73l.095.043c2.858 1.208 6.156-.163 7.348-3.064.58-1.401.58-2.944.011-4.346-.58-1.412-1.654-2.498-3.04-3.085" mask="url(#mn0u16coxd)"/>
                <path fill="#525252" d="M29.331 67.532c.526 0 1.013-.205 1.383-.577.36-.371.565-.86.565-1.389 0-.127-.01-.254-.039-.38-.02-.128-.058-.245-.107-.363-.048-.118-.107-.235-.185-.343-.068-.106-.146-.205-.234-.293-.73-.734-2.035-.734-2.756 0-.37.362-.575.871-.575 1.38 0 .527.205 1.017.575 1.388.185.187.39.323.633.42.234.099.487.157.74.157M22.523 86.679h4.526v-4.527h-4.526v4.527zm-4.23-6.642v8.757c0 1.163.951 2.115 2.114 2.115h8.757c1.165 0 2.115-.952 2.115-2.115v-8.757c0-1.163-.95-2.115-2.115-2.115h-8.757c-1.173 0-2.115.952-2.115 2.115zM24.365 54.545c1.198 0 2.177-.973 2.177-2.163v-14.12l22.27-9.228 22.27 9.24v5.539c0 1.19.979 2.164 2.176 2.164 1.198 0 2.177-.974 2.177-2.164v-6.99c0-.876-.522-1.666-1.339-2L50.99 25.246c-1.534-.715-2.996-.808-4.354 0l-23.108 9.564c-.805.336-1.339 1.125-1.339 2.002V52.37c0 1.19.98 2.174 2.177 2.174" mask="url(#mn0u16coxd)"/>
                <path fill="#525252" d="M39.897 42.208c0 .82-.656 1.474-1.475 1.474-.82 0-1.474-.655-1.474-1.474 0-.82.666-1.475 1.474-1.475.809 0 1.475.656 1.475 1.475m-7.319 0c0 3.222 2.622 5.844 5.844 5.844 3.223 0 5.844-2.622 5.844-5.844 0-3.223-2.621-5.844-5.844-5.844-3.222 0-5.844 2.621-5.844 5.844M60.676 42.208c0 .82-.656 1.474-1.476 1.474-.819 0-1.473-.655-1.473-1.474 0-.82.666-1.475 1.473-1.475.81 0 1.476.656 1.476 1.475m-7.319 0c0 3.222 2.622 5.844 5.843 5.844 3.224 0 5.846-2.622 5.846-5.844 0-3.223-2.622-5.844-5.846-5.844-3.221 0-5.843 2.621-5.843 5.844M18.292 18.182c1.434 0 2.598-1.164 2.598-2.598 0-1.433-1.164-2.597-2.598-2.597-1.433 0-2.597 1.164-2.597 2.597 0 1.434 1.164 2.598 2.597 2.598M7.903 11.688c1.434 0 2.597-1.163 2.597-2.597S9.337 6.494 7.903 6.494 5.305 7.657 5.305 9.09s1.164 2.597 2.598 2.597" mask="url(#mn0u16coxd)"/>
            </g>
        </g>
    </g>
</svg>
