<svg xmlns="http://www.w3.org/2000/svg" viewBox="0 0 100 100">
    <g fill="none" fill-rule="evenodd">
        <g fill="#484848" fill-rule="nonzero">
            <g>
                <path d="M16.986 13.523c3.218 0 5.839-2.561 5.839-5.707 0-3.145-2.621-5.706-5.839-5.706-3.218 0-5.839 2.561-5.839 5.706 0 3.146 2.621 5.707 5.839 5.707zm0-7.263c.88 0 1.592.697 1.592 1.556 0 .86-.713 1.557-1.592 1.557-.88 0-1.592-.697-1.592-1.557 0-.863.713-1.556 1.592-1.556zm3.716 74.854c-3.218 0-5.84 2.561-5.84 5.706 0 3.146 2.622 5.707 5.84 5.707s5.839-2.561 5.839-5.707c0-3.145-2.621-5.706-5.84-5.706zm0 7.263c-.88 0-1.593-.697-1.593-1.557 0-.859.714-1.556 1.593-1.556s1.592.697 1.592 1.556c0 .86-.709 1.557-1.592 1.557zm6.37-15.95c0 1.432-1.19 2.595-2.655 2.595-1.464 0-2.654-1.163-2.654-2.594 0-1.43 1.19-2.594 2.654-2.594s2.654 1.163 2.654 2.594zm55.3-7.781c0 1.43-1.19 2.594-2.655 2.594-1.463 0-2.654-1.163-2.654-2.594 0-1.43 1.19-2.594 2.654-2.594s2.654 1.163 2.654 2.594zm13.283 15.491c0 1.431-1.19 2.594-2.655 2.594-1.463 0-2.654-1.163-2.654-2.594 0-1.43 1.19-2.594 2.654-2.594s2.655 1.163 2.655 2.594zM85.038 6.788c0-1.43 1.19-2.594 2.654-2.594s2.654 1.163 2.654 2.594c0 1.43-1.19 2.594-2.654 2.594-1.468 0-2.654-1.16-2.654-2.594zM0 11.555C0 10.124 1.19 8.96 2.654 8.96s2.654 1.163 2.654 2.594c0 1.43-1.19 2.594-2.654 2.594S0 12.985 0 11.555zm15.394 53.092c0 1.143-.954 2.075-2.124 2.075h-3.185v3.113c0 1.143-.953 2.075-2.123 2.075-1.17 0-2.123-.932-2.123-2.075v-3.113H2.654c-1.17 0-2.123-.932-2.123-2.075 0-1.143.954-2.076 2.123-2.076H5.84V59.46c0-1.143.954-2.076 2.123-2.076 1.17 0 2.123.933 2.123 2.076v3.112h3.185c1.17 0 2.124.933 2.124 2.076zm69.1 23.666c0 1.143-.953 2.076-2.123 2.076h-3.184V93.5c0 1.143-.954 2.076-2.124 2.076-1.17 0-2.123-.933-2.123-2.076V90.39h-3.185c-1.17 0-2.123-.933-2.123-2.076s.954-2.075 2.123-2.075h3.185v-3.113c0-1.143.954-2.075 2.123-2.075 1.17 0 2.124.932 2.124 2.075v3.113h3.184c1.17 0 2.124.936 2.124 2.075zm13.284-36.222c0 1.143-.954 2.075-2.123 2.075H92.47v3.113c0 1.143-.954 2.075-2.124 2.075-1.17 0-2.123-.932-2.123-2.075v-3.113h-3.185c-1.17 0-2.123-.932-2.123-2.075 0-1.143.954-2.076 2.123-2.076h3.185v-3.112c0-1.143.954-2.076 2.123-2.076 1.17 0 2.124.933 2.124 2.076v3.112h3.185c1.177 0 2.123.925 2.123 2.076zM41.159 13.485c.776.85.701 2.168-.17 2.926-3.409 2.967-5.69 6.858-6.581 11.248-.203.984-1.095 1.67-2.082 1.67-.137 0-.278-.013-.414-.041-1.145-.227-1.9-1.317-1.668-2.44 1.083-5.281 3.824-9.963 7.921-13.53.871-.77 2.21-.697 2.994.167zm13.834 66.24c.021.134.033.272.033.405 0 .56-.211 1.079-.613 1.476-.204.198-.436.34-.689.446-.253.105-.53.154-.817.154-.564 0-1.094-.207-1.497-.6-.402-.393-.614-.912-.614-1.476 0-.55.224-1.078.614-1.463.796-.778 2.219-.778 3.003 0 .095.093.182.199.265.312.075.114.137.24.19.365.05.122.092.255.125.381zm-4.13 4.013c.879.758.979 2.063.203 2.926-2.028 2.274-2.505 5.415-1.265 8.208.469 1.05-.02 2.273-1.094 2.727-.278.114-.564.179-.85.179-.818 0-1.593-.466-1.941-1.245-1.92-4.276-1.17-9.099 1.94-12.597.776-.86 2.128-.953 3.007-.199zm16.53-17.587c-2.451 2.282-3.152 5.72-1.796 8.747 2.081 4.649 1.007 9.91-2.75 13.416-.414.385-.933.572-1.464.572-.564 0-1.115-.22-1.538-.645-.809-.83-.776-2.148.062-2.934 2.451-2.282 3.152-5.72 1.796-8.747-2.082-4.649-1.008-9.91 2.75-13.416 2.45-2.282 3.15-5.719 1.795-8.747-1.572-3.498-1.348-7.344.468-10.53l-6.743-1.317c-1.89 2.262-2.326 5.23-1.082 7.99 2.082 4.648 1.008 9.91-2.75 13.415-2.45 2.282-3.151 5.72-1.795 8.747.062.154.137.3.19.466.424 1.07-.115 2.274-1.21 2.687-.253.094-.51.146-.763.146-.85 0-1.655-.498-1.974-1.33-.042-.104-.083-.198-.129-.299-2.081-4.649-1.007-9.918 2.75-13.416 2.45-2.282 3.152-5.72 1.795-8.747-1.571-3.498-1.347-7.344.469-10.53l-6.743-1.317c-1.858 2.242-2.306 5.27-1.082 7.989 1.144 2.562 1.36 5.301.626 7.936-.253.924-1.116 1.524-2.049 1.524-.19 0-.373-.02-.564-.073-1.136-.3-1.795-1.443-1.484-2.553.477-1.71.34-3.498-.415-5.176-1.572-3.498-1.348-7.345.469-10.53l-5.105-.997-1.912 9.359c-.701 3.433-2.737 6.404-5.723 8.341-2.231 1.451-4.798 2.21-7.419 2.21-.879 0-1.775-.082-2.666-.26-3.513-.685-6.553-2.675-8.535-5.594-1.986-2.914-2.695-6.412-1.995-9.845l1.73-8.434c.448-2.18 0-4.39-1.265-6.238-1.265-1.848-3.185-3.1-5.404-3.538-1.144-.227-1.899-1.318-1.667-2.44.233-1.12 1.348-1.849 2.497-1.63 3.342.653 6.22 2.541 8.111 5.314 1.891 2.772 2.56 6.092 1.891 9.358l-1.729 8.435c-.477 2.347 0 4.742 1.36 6.732 1.36 1.994 3.43 3.352 5.84 3.818 2.4.466 4.851 0 6.887-1.329 2.04-1.33 3.43-3.352 3.907-5.707l1.912-9.358-3.824-.746c-5.457-1.07-9.024-6.185-7.975-11.426 0-.012.021-.094.021-.106 1.721-8.414 6.743-15.625 14.14-20.306C44.684.403 53.484-1.113 62.085.816 74.6 3.617 84.228 13.393 86.63 25.731c.224 1.119-.543 2.21-1.688 2.428-1.144.219-2.26-.53-2.484-1.65C80.376 15.79 72 7.29 61.13 4.862c-7.464-1.67-15.107-.353-21.53 3.705-6.424 4.057-10.787 10.335-12.284 17.66-.614 3.06 1.464 5.998 4.628 6.618l16.468 3.219 11.243 2.2h.012l15.816 3.093c1.539.3 3.11 0 4.417-.86 1.315-.859 2.206-2.188 2.517-3.712.286-1.45.456-2.947.498-4.442.033-1.143 1-2.075 2.185-2.015 1.17.033 2.09.998 2.062 2.136-.055 1.71-.245 3.425-.573 5.095-.518 2.627-2.049 4.888-4.309 6.38-1.692 1.102-3.633 1.682-5.619 1.682-.668 0-1.34-.06-2.007-.199l-3.43-.672c-1.857 2.24-2.305 5.269-1.082 7.988 2.082 4.65 1 9.91-2.75 13.416v-.003zm-23.037-3.858c-2.028 2.274-2.517 5.427-1.265 8.22 2.082 4.648 1.008 9.91-2.749 13.416-2.45 2.282-3.152 5.719-1.796 8.746.469 1.05-.02 2.274-1.094 2.728-.278.114-.564.178-.85.178-.818 0-1.593-.466-1.941-1.244-2.082-4.649-1.008-9.91 2.75-13.416 2.45-2.282 3.15-5.719 1.795-8.747-1.92-4.276-1.17-9.111 1.953-12.604.775-.86 2.11-.957 2.994-.2.892.743.979 2.052.203 2.923zm8.61-45.695c-1.436-.28-2.369-1.65-2.082-3.052.286-1.403 1.687-2.315 3.122-2.035 1.435.28 2.368 1.65 2.082 3.052-.29 1.403-1.688 2.315-3.123 2.035zm13.535 0c.286-1.403 1.688-2.315 3.123-2.035 1.435.28 2.368 1.65 2.081 3.052-.286 1.403-1.687 2.315-3.122 2.035-1.435-.284-2.368-1.654-2.082-3.052zm-12.677 4.357c-.49-.645.129-1.536.925-1.378l11.01 2.156c.796.154 1.008 1.204.307 1.617-1.912 1.119-4.234 1.577-6.602 1.119-2.347-.462-4.321-1.76-5.64-3.514z"/>
            </g>
        </g>
    </g>
</svg>
