<svg xmlns="http://www.w3.org/2000/svg" viewBox="0 0 382 368">
    <g fill="none" fill-rule="evenodd" opacity=".9">
        <g fill="#484848" fill-rule="nonzero">
            <g>
                <path d="M89.9 65.774c8.459 0 15.348-6.88 15.348-15.33 0-8.448-6.89-15.33-15.349-15.33-8.46 0-15.35 6.882-15.35 15.33 0 8.45 6.89 15.33 15.35 15.33zm0-19.51c2.31 0 4.185 1.872 4.185 4.18 0 2.309-1.875 4.181-4.186 4.181s-4.186-1.872-4.186-4.18c0-2.32 1.875-4.181 4.186-4.181zm-4.215 271.171c-8.46 0-15.349 6.881-15.349 15.33s6.89 15.33 15.35 15.33c8.459 0 15.349-6.881 15.349-15.33s-6.89-15.33-15.35-15.33zM366.601 96.916c-8.46 0-15.349 6.881-15.349 15.33s6.89 15.33 15.35 15.33c8.459 0 15.349-6.881 15.349-15.33s-6.89-15.33-15.35-15.33zM85.685 336.946c-2.31 0-4.186-1.873-4.186-4.18 0-2.31 1.875-4.182 4.186-4.182s4.187 1.873 4.187 4.181-1.865 4.181-4.187 4.181zm280.916-220.52c-2.31 0-4.186-1.872-4.186-4.18s1.875-4.18 4.186-4.18 4.187 1.872 4.187 4.18-1.865 4.18-4.187 4.18zM110.977 268.22c0 3.843-3.129 6.968-6.977 6.968-3.848 0-6.977-3.125-6.977-6.968s3.129-6.968 6.977-6.968c3.848 0 6.977 3.125 6.977 6.968zm175.572-36.519c0 3.843-3.128 6.968-6.977 6.968-3.848 0-6.977-3.125-6.977-6.968s3.13-6.968 6.977-6.968c3.849 0 6.977 3.125 6.977 6.968zm46.352 80.061c0 3.843-3.13 6.968-6.977 6.968-3.849 0-6.977-3.125-6.977-6.968s3.128-6.968 6.977-6.968c3.848 0 6.977 3.125 6.977 6.968zm-20.977-269.68c0-3.843 3.129-6.967 6.977-6.967 3.848 0 6.977 3.124 6.977 6.968 0 3.843-3.129 6.968-6.977 6.968-3.86 0-6.977-3.114-6.977-6.968zM205.176 6.969c0-3.843 3.128-6.968 6.977-6.968 3.848 0 6.977 3.125 6.977 6.968 0 3.844-3.13 6.968-6.977 6.968-3.86 0-6.977-3.114-6.977-6.968zM12.748 98.266c0-3.843 3.129-6.968 6.977-6.968 3.848 0 6.977 3.125 6.977 6.968s-3.129 6.968-6.977 6.968c-3.848 0-6.977-3.125-6.977-6.968zm26.43 136.146c0 3.07-2.507 5.574-5.581 5.574h-8.373v8.362c0 3.07-2.507 5.575-5.581 5.575-3.075 0-5.582-2.505-5.582-5.575v-8.362H5.689c-3.075 0-5.582-2.504-5.582-5.574s2.507-5.575 5.582-5.575h8.372v-8.362c0-3.07 2.507-5.574 5.582-5.574 3.074 0 5.581 2.504 5.581 5.574v8.362h8.373c3.074 0 5.581 2.504 5.581 5.575zm230.351 113.77c0 3.071-2.507 5.575-5.581 5.575h-8.373v8.362c0 3.07-2.507 5.575-5.581 5.575-3.075 0-5.582-2.505-5.582-5.575v-8.362h-8.372c-3.075 0-5.582-2.504-5.582-5.574s2.507-5.575 5.582-5.575h8.372v-8.362c0-3.07 2.507-5.574 5.582-5.574 3.074 0 5.581 2.504 5.581 5.574v8.362h8.373c3.074 0 5.581 2.515 5.581 5.575zm87.084-127.816c0 3.07-2.507 5.574-5.581 5.574h-8.373v8.362c0 3.07-2.507 5.575-5.581 5.575-3.075 0-5.582-2.504-5.582-5.575v-8.362h-8.372c-3.075 0-5.582-2.504-5.582-5.574s2.507-5.575 5.582-5.575h8.372v-8.362c0-3.07 2.507-5.574 5.582-5.574 3.074 0 5.581 2.504 5.581 5.575v8.361h8.373c3.096 0 5.581 2.483 5.581 5.575zM157.467 102.238c2.038 2.287 1.842 5.825-.447 7.861-8.961 7.97-14.957 18.422-17.301 30.214-.534 2.646-2.878 4.486-5.473 4.486-.36 0-.73-.033-1.09-.109-3.009-.61-4.993-3.538-4.382-6.554 2.845-14.187 10.051-26.763 20.822-36.344 2.289-2.068 5.81-1.872 7.87.447zm36.366 177.94c.055.359.088.729.088 1.088 0 1.503-.556 2.897-1.614 3.963-.534.534-1.144.915-1.81 1.198-.664.283-1.395.414-2.147.414-1.483 0-2.878-.555-3.936-1.611-1.057-1.057-1.613-2.45-1.613-3.964 0-1.48.589-2.896 1.613-3.93 2.093-2.09 5.833-2.09 7.893 0 .25.25.48.533.698.838.196.305.36.642.501.98.131.327.24.686.327 1.023zm-10.857 10.778c2.31 2.036 2.572 5.542.534 7.861-5.331 6.108-6.585 14.547-3.325 22.048 1.232 2.82-.055 6.108-2.878 7.328-.73.305-1.483.479-2.235.479-2.148 0-4.186-1.252-5.102-3.343-5.047-11.486-3.074-24.443 5.102-33.84 2.039-2.308 5.593-2.559 7.904-.533zm43.452-47.241c-6.443 6.13-8.285 15.363-4.72 23.496 5.472 12.488 2.649 26.62-7.228 36.04-1.09 1.034-2.453 1.534-3.848 1.534-1.483 0-2.932-.588-4.044-1.73-2.126-2.233-2.039-5.771.163-7.883 6.443-6.13 8.286-15.363 4.72-23.496-5.472-12.489-2.649-26.62 7.228-36.04 6.443-6.13 8.285-15.362 4.72-23.495-4.131-9.397-3.542-19.729 1.232-28.286l-17.726-3.538c-4.97 6.075-6.115 14.045-2.845 21.46 5.473 12.488 2.65 26.62-7.227 36.039-6.443 6.13-8.286 15.363-4.72 23.496.163.414.359.806.5 1.252 1.113 2.874-.305 6.108-3.183 7.218-.665.25-1.34.392-2.005.392-2.235 0-4.35-1.339-5.19-3.57-.109-.284-.218-.534-.338-.806-5.472-12.489-2.649-26.643 7.228-36.04 6.443-6.13 8.285-15.362 4.72-23.496-4.131-9.396-3.543-19.728 1.232-28.285l-17.726-3.538c-4.884 6.02-6.061 14.154-2.845 21.46 3.009 6.88 3.576 14.24 1.646 21.318-.665 2.482-2.932 4.094-5.385 4.094-.502 0-.981-.055-1.483-.196-2.987-.806-4.72-3.876-3.903-6.86 1.254-4.594.894-9.396-1.09-13.903-4.131-9.396-3.543-19.729 1.232-28.286l-13.42-2.678-5.025 25.14c-1.843 9.222-7.195 17.203-15.044 22.407-5.866 3.898-12.613 5.934-19.503 5.934-2.311 0-4.666-.218-7.01-.697-9.234-1.84-17.224-7.186-22.435-15.025-5.222-7.828-7.087-17.225-5.244-26.447l4.546-22.657c1.177-5.858 0-11.791-3.325-16.756s-8.373-8.33-14.205-9.505c-3.008-.61-4.993-3.539-4.382-6.555.61-3.005 3.543-4.965 6.563-4.377 8.786 1.753 16.352 6.827 21.323 14.274 4.971 7.447 6.726 16.365 4.971 25.14l-4.546 22.657c-1.254 6.304 0 12.739 3.576 18.085 3.575 5.357 9.015 9.004 15.35 10.256 6.311 1.252 12.754 0 18.107-3.57 5.363-3.572 9.015-9.005 10.269-15.33l5.026-25.14-10.052-2.004c-14.346-2.874-23.722-16.614-20.963-30.693 0-.033.054-.25.054-.283 4.524-22.603 17.726-41.974 37.174-54.547 19.383-12.597 42.515-16.67 65.126-11.487 32.9 7.524 58.213 33.785 64.526 66.928.588 3.005-1.428 5.934-4.437 6.522-3.009.588-5.941-1.427-6.53-4.431-5.472-28.798-27.494-51.629-56.067-58.151-19.623-4.486-39.713-.947-56.6 9.951-16.887 10.899-28.355 27.764-32.29 47.44-1.613 8.22 3.848 16.113 12.166 17.78l43.291 8.644 29.555 5.912h.032l41.578 8.308c4.044.805 8.176 0 11.61-2.308 3.456-2.309 5.8-5.88 6.617-9.974.753-3.897 1.2-7.915 1.309-11.932.087-3.07 2.627-5.575 5.745-5.412 3.074.087 5.494 2.679 5.42 5.738-.144 4.595-.645 9.2-1.507 13.686-1.362 7.055-5.385 13.13-11.326 17.138-4.448 2.961-9.55 4.518-14.772 4.518-1.755 0-3.521-.163-5.276-.534l-9.016-1.807c-4.884 6.021-6.061 14.154-2.845 21.46 5.472 12.488 2.627 26.62-7.228 36.04v-.009zm-60.557-10.365c-5.331 6.108-6.618 14.579-3.325 22.08 5.472 12.489 2.649 26.62-7.228 36.04-6.443 6.13-8.285 15.362-4.72 23.495 1.232 2.82-.055 6.108-2.878 7.328-.73.305-1.483.479-2.235.479-2.147 0-4.186-1.252-5.102-3.343-5.472-12.488-2.649-26.62 7.228-36.039 6.443-6.13 8.285-15.363 4.72-23.496-5.047-11.486-3.074-24.475 5.135-33.86 2.038-2.308 5.549-2.569 7.87-.533 2.344 1.992 2.573 5.51.535 7.85v-.001zM188.502 110.6c-3.772-.751-6.224-4.431-5.472-8.198.752-3.768 4.437-6.217 8.209-5.466 3.772.751 6.225 4.431 5.472 8.199-.763 3.767-4.437 6.217-8.209 5.465zm35.583 0c.752-3.767 4.437-6.217 8.209-5.465 3.772.75 6.225 4.43 5.472 8.198-.752 3.767-4.436 6.217-8.208 5.466-3.772-.762-6.225-4.443-5.473-8.199zm-33.325 11.704c-1.286-1.73.338-4.126 2.431-3.701l28.944 5.792c2.093.414 2.649 3.234.806 4.344-5.025 3.005-11.13 4.235-17.355 3.005-6.17-1.241-11.36-4.725-14.826-9.44z" transform="translate(-243 -361) translate(243 361)"/>
            </g>
        </g>
    </g>
</svg>
