<svg xmlns="http://www.w3.org/2000/svg" viewBox="0 0 294 66">
    <g fill="none" fill-rule="evenodd">
        <g fill="#525252" fill-rule="nonzero">
            <g>
                <g>
                    <path d="M171.044 38.155c.864 0 1.485-.372 1.865-1.114.38-.743.57-1.528.57-2.357 0-.967-.207-1.805-.622-2.513-.414-.708-1.018-1.062-1.813-1.062h-13.883v-8.806h7.77c.864 0 1.486-.337 1.865-1.01.38-.673.57-1.356.57-2.046 0-.83-.207-1.563-.621-2.202-.415-.639-1.02-.958-1.813-.958h-7.77V7.332h13.882c.795 0 1.399-.354 1.813-1.062.415-.708.622-1.545.622-2.512 0-.829-.19-1.615-.57-2.357-.38-.743-1.001-1.114-1.865-1.114h-18.441c-.864 0-1.667.207-2.41.622-.742.414-1.113 1.036-1.113 1.865v32.894c0 .829.371 1.45 1.114 1.865.742.414 1.545.622 2.409.622h18.441zm24.71 0c1.001 0 1.925-.208 2.771-.622.846-.414 1.27-1.036 1.27-1.865V24.064c0-2.003-.406-3.824-1.218-5.465-.811-1.64-1.882-2.952-3.212-3.937-1.33-.984-2.788-1.476-4.377-1.476-1.727 0-3.194.406-4.403 1.217-1.209.812-2.055 1.718-2.538 2.72V15.93c0-.725-.346-1.312-1.036-1.76-.691-.45-1.52-.674-2.487-.674-1.174 0-2.132.224-2.875.673-.742.45-1.114 1.036-1.114 1.761v19.737c0 .622.372 1.192 1.114 1.71.743.518 1.7.777 2.875.777 1.105 0 2.055-.26 2.85-.777.793-.518 1.19-1.088 1.19-1.71V24.064c0-.828.173-1.528.519-2.098.345-.57.785-1.01 1.32-1.32.536-.311 1.08-.467 1.632-.467.691 0 1.321.19 1.891.57.57.38 1.019.863 1.347 1.45.328.588.492 1.21.492 1.865v11.604c0 .829.432 1.45 1.295 1.865.864.414 1.761.622 2.694.622zm18.545 11.24c1.934 0 3.79-.276 5.569-.828 1.778-.553 3.246-1.45 4.403-2.694 1.157-1.243 1.735-2.884 1.735-4.921 0-1.623-.37-2.927-1.113-3.911s-1.692-1.736-2.85-2.254c-1.156-.518-2.39-.897-3.703-1.14-1.313-.24-2.547-.43-3.704-.569-1.157-.138-2.107-.31-2.85-.518-.742-.207-1.113-.553-1.113-1.036 0-.104.017-.207.052-.31.034-.105.086-.225.155-.364.933.208 1.969.311 3.108.311 2.107 0 3.972-.38 5.595-1.14 1.623-.76 2.892-1.787 3.807-3.082.916-1.295 1.373-2.771 1.373-4.429v-.777c0-1.001-.164-1.934-.492-2.797-.328-.863-.82-1.64-1.476-2.331.38-.38.768-.717 1.165-1.01.397-.294.751-.579 1.062-.855.277-.242.484-.492.622-.751.138-.26.207-.527.207-.803 0-.484-.268-1.002-.803-1.554-.535-.553-1.286-.829-2.253-.829-.45 0-.898.224-1.347.673-.45.45-.984 1.434-1.606 2.953-.794-.38-1.692-.682-2.694-.906-1.001-.225-2.055-.337-3.16-.337-2.106 0-3.963.363-5.568 1.088-1.606.725-2.85 1.726-3.73 3.004-.88 1.278-1.321 2.763-1.321 4.455v.777c0 1.347.293 2.582.88 3.704.588 1.123 1.416 2.08 2.487 2.875-.76.553-1.39 1.148-1.89 1.787-.502.64-.752 1.442-.752 2.41 0 .759.173 1.398.518 1.916.345.518.794.95 1.347 1.295-1.002.552-1.83 1.278-2.487 2.176-.656.898-.984 1.968-.984 3.211 0 1.589.553 2.944 1.658 4.067 1.105 1.122 2.564 1.977 4.377 2.564 1.813.587 3.739.88 5.776.88zm-.207-22.896c-.967 0-1.7-.388-2.202-1.165-.5-.777-.75-1.736-.75-2.875v-.726c0-1.07.25-1.985.75-2.745.501-.76 1.218-1.14 2.15-1.14.967 0 1.701.38 2.202 1.14.5.76.75 1.675.75 2.745v.777c0 1.174-.258 2.133-.776 2.875-.518.743-1.226 1.114-2.124 1.114zm.052 17.82c-1.036 0-1.977-.276-2.823-.829-.847-.552-1.27-1.364-1.27-2.434 0-.622.173-1.21.518-1.762.346-.552.864-1.001 1.554-1.347.795.104 1.563.216 2.306.337.742.121 1.398.294 1.968.518.57.225 1.019.527 1.347.907.328.38.492.863.492 1.45 0 .967-.423 1.736-1.269 2.305-.846.57-1.787.855-2.823.855zm18.804-35.588c1.174 0 2.167-.38 2.979-1.14.811-.76 1.217-1.623 1.217-2.59 0-1.001-.406-1.865-1.217-2.59-.812-.725-1.805-1.088-2.979-1.088-1.174 0-2.176.363-3.005 1.088-.828.725-1.243 1.589-1.243 2.59 0 .967.415 1.83 1.243 2.59.83.76 1.83 1.14 3.005 1.14zm0 29.424c1.105 0 2.055-.26 2.85-.777.793-.518 1.19-1.088 1.19-1.71V15.931c0-.725-.397-1.312-1.19-1.76-.795-.45-1.745-.674-2.85-.674-1.174 0-2.133.224-2.875.673-.743.45-1.114 1.036-1.114 1.761v19.737c0 .622.371 1.192 1.114 1.71.742.518 1.7.777 2.875.777zm27.87 0c1.001 0 1.925-.208 2.771-.622.846-.414 1.27-1.036 1.27-1.865V24.064c0-2.003-.407-3.824-1.218-5.465-.812-1.64-1.882-2.952-3.212-3.937-1.33-.984-2.789-1.476-4.377-1.476-1.727 0-3.195.406-4.403 1.217-1.21.812-2.055 1.718-2.539 2.72V15.93c0-.725-.345-1.312-1.036-1.76-.69-.45-1.52-.674-2.486-.674-1.174 0-2.133.224-2.875.673-.743.45-1.114 1.036-1.114 1.761v19.737c0 .622.371 1.192 1.114 1.71.742.518 1.7.777 2.875.777 1.105 0 2.055-.26 2.849-.777.794-.518 1.191-1.088 1.191-1.71V24.064c0-.828.173-1.528.518-2.098.346-.57.786-1.01 1.321-1.32.536-.311 1.08-.467 1.632-.467.69 0 1.321.19 1.89.57.57.38 1.02.863 1.348 1.45.328.588.492 1.21.492 1.865v11.604c0 .829.432 1.45 1.295 1.865.863.414 1.761.622 2.694.622zm20.617.518c1.968 0 3.67-.25 5.103-.751 1.433-.501 2.546-1.114 3.34-1.84.795-.725 1.192-1.415 1.192-2.072 0-.414-.112-.897-.337-1.45-.224-.553-.56-1.036-1.01-1.45-.449-.415-.984-.622-1.606-.622-.552 0-1.122.155-1.709.466-.587.31-1.26.63-2.02.958-.76.329-1.675.493-2.746.493-1.588 0-2.866-.389-3.833-1.166-.967-.777-1.45-1.804-1.45-3.082v-.311h9.997c.794 0 1.58-.078 2.357-.233.777-.156 1.416-.57 1.917-1.243.5-.674.751-1.788.751-3.342 0-1.968-.518-3.686-1.554-5.154s-2.392-2.616-4.067-3.445c-1.674-.829-3.513-1.243-5.516-1.243-2.21 0-4.214.492-6.01 1.476-1.795.985-3.229 2.288-4.3 3.911-1.07 1.623-1.605 3.402-1.605 5.336v3.782c0 2.175.561 4.092 1.684 5.75 1.122 1.657 2.667 2.944 4.636 3.859 1.968.915 4.23 1.373 6.786 1.373zm1.347-15.334h-6.424v-1.243c0-.69.182-1.27.544-1.735.363-.467.83-.812 1.399-1.037.57-.224 1.165-.336 1.787-.336.656 0 1.27.112 1.84.336.569.225 1.035.57 1.398 1.037.362.466.544 1.044.544 1.735 0 .483-.087.811-.26.984-.172.173-.448.26-.828.26zM6.834 38.748c.522 0 .906-.154 1.152-.46.245-.308.368-.653.368-1.037 0-.368-.123-.71-.368-1.024-.246-.315-.63-.472-1.152-.472h-.99c-.353 0-.598-.065-.736-.196-.138-.13-.207-.364-.207-.702V30.32h2.601c.292 0 .51-.13.656-.391.146-.261.219-.553.219-.875 0-.307-.073-.595-.219-.863-.146-.269-.364-.403-.656-.403H4.901v-3.684c0-.322-.189-.583-.565-.783-.376-.2-.786-.299-1.231-.299-.415 0-.814.1-1.198.3-.383.199-.575.46-.575.782v10.752c0 1.35.387 2.337 1.163 2.958.775.622 1.891.933 3.35.933h.99zm11.49 0c.444 0 .855-.092 1.23-.276.377-.185.565-.46.565-.83v-5.156c0-.89-.18-1.7-.541-2.43-.36-.729-.837-1.312-1.428-1.75-.59-.437-1.239-.655-1.945-.655s-1.305.18-1.796.54c-.491.361-.844.764-1.059 1.21v-6.792c0-.323-.176-.584-.53-.783-.353-.2-.775-.3-1.266-.3-.522 0-.948.1-1.278.3-.33.2-.495.46-.495.783v15.034c0 .276.165.53.495.76.33.23.756.345 1.278.345.491 0 .913-.115 1.266-.346.354-.23.53-.483.53-.76v-5.156c0-.369.077-.68.23-.933.154-.253.35-.449.587-.587.238-.138.48-.207.726-.207.307 0 .583.084.828.253.246.169.446.384.599.645.154.26.23.537.23.829v5.157c0 .368.192.644.576.829.384.184.783.276 1.197.276zm9.162.23c.875 0 1.631-.111 2.268-.334.637-.222 1.132-.495 1.485-.817.353-.322.53-.63.53-.921 0-.184-.05-.4-.15-.645-.1-.245-.25-.46-.449-.644-.2-.185-.437-.277-.714-.277-.245 0-.499.07-.76.208-.26.138-.56.28-.897.426-.338.145-.745.218-1.22.218-.707 0-1.275-.172-1.704-.518-.43-.345-.645-.802-.645-1.37v-.138h4.444c.353 0 .702-.034 1.047-.103.345-.07.63-.254.852-.553.223-.3.334-.794.334-1.485 0-.875-.23-1.638-.69-2.29-.461-.653-1.064-1.163-1.808-1.532-.745-.368-1.562-.552-2.452-.552-.983 0-1.873.218-2.67.656-.8.437-1.436 1.017-1.912 1.738-.476.721-.714 1.512-.714 2.371v1.681c0 .967.25 1.819.749 2.556.499.736 1.185 1.308 2.06 1.715.875.407 1.88.61 3.016.61zm.599-6.815H25.23v-.552c0-.307.08-.564.242-.772.16-.207.368-.36.621-.46.254-.1.518-.15.795-.15.291 0 .564.05.817.15.253.1.46.253.622.46.16.208.241.465.241.772 0 .215-.038.36-.115.437-.076.077-.2.115-.368.115zM48.925 39.14c2.222 0 4.185-.388 5.89-1.165 1.705-.776 3.052-1.917 4.041-3.424.99-1.507 1.484-3.357 1.484-5.548 0-1.644-.259-3.06-.776-4.247-.518-1.187-1.21-2.192-2.078-3.014-.867-.822-1.819-1.53-2.854-2.123-1.035-.594-2.062-1.111-3.082-1.553-1.02-.441-1.963-.867-2.83-1.278-.869-.411-1.561-.853-2.079-1.324-.517-.472-.776-1.028-.776-1.667 0-.487.152-.936.457-1.347.304-.411.799-.746 1.484-1.005.685-.258 1.56-.388 2.625-.388 1.249 0 2.23.145 2.946.434.715.29 1.309.578 1.78.868.472.289.982.433 1.53.433.67 0 1.21-.228 1.621-.685.411-.456.716-.981.913-1.575.198-.594.297-1.088.297-1.484 0-.883-.35-1.59-1.05-2.123-.7-.533-1.56-.936-2.58-1.21-1.02-.274-2.032-.457-3.036-.548-1.005-.092-1.812-.137-2.42-.137-1.431 0-2.84.175-4.224.525-1.386.35-2.641.898-3.768 1.644-1.126.745-2.024 1.72-2.694 2.922-.67 1.202-1.004 2.656-1.004 4.36 0 1.523.258 2.832.776 3.928s1.21 2.032 2.078 2.808c.867.776 1.819 1.446 2.854 2.01 1.035.562 2.062 1.08 3.082 1.552s1.963.936 2.83 1.393c.869.456 1.561.966 2.079 1.53.517.562.776 1.24.776 2.031 0 .73-.22 1.317-.662 1.758-.442.442-1.005.761-1.69.96-.685.197-1.377.296-2.077.296-1.066 0-1.972-.167-2.717-.502-.746-.335-1.4-.73-1.964-1.188-.563-.456-1.08-.852-1.552-1.187-.472-.335-.982-.502-1.53-.502-.579 0-1.104.213-1.575.64-.472.425-.845.935-1.12 1.529-.273.594-.41 1.15-.41 1.667 0 1.004.502 1.955 1.507 2.854 1.004.898 2.344 1.636 4.018 2.214 1.674.579 3.5.868 5.48.868zm25.342-.457c1.035 0 1.796-.304 2.284-.913.487-.609.73-1.294.73-2.055 0-.73-.243-1.408-.73-2.032-.488-.624-1.249-.936-2.284-.936h-1.963c-.7 0-1.187-.13-1.461-.388-.274-.259-.411-.723-.411-1.393v-8.995h5.16c.578 0 1.012-.26 1.301-.777.29-.517.434-1.096.434-1.735 0-.609-.145-1.18-.434-1.712-.29-.533-.723-.8-1.301-.8h-5.16V9.643c0-.64-.373-1.157-1.119-1.553-.746-.396-1.56-.594-2.443-.594-.822 0-1.613.198-2.374.594-.762.396-1.142.913-1.142 1.553v21.324c0 2.679.769 4.635 2.306 5.868 1.537 1.233 3.752 1.85 6.644 1.85h1.963zm14.886.457c1.857 0 3.577-.457 5.16-1.37 1.583-.913 2.854-2.108 3.813-3.585.96-1.476 1.439-3.051 1.439-4.726v-3.196c0-1.766-.48-3.372-1.439-4.818-.959-1.446-2.23-2.602-3.813-3.47-1.583-.868-3.303-1.301-5.16-1.301-1.887 0-3.622.441-5.205 1.324-1.583.883-2.839 2.055-3.767 3.516-.929 1.461-1.393 3.044-1.393 4.749v3.196c0 1.705.48 3.296 1.438 4.772.96 1.476 2.223 2.664 3.79 3.562 1.568.898 3.28 1.347 5.137 1.347zm0-6.165c-.608 0-1.164-.167-1.666-.502-.503-.335-.898-.769-1.187-1.301-.29-.533-.434-1.104-.434-1.713v-3.196c0-.579.144-1.127.434-1.644.289-.518.684-.944 1.187-1.279.502-.334 1.058-.502 1.666-.502.61 0 1.165.168 1.667.502.502.335.906.761 1.21 1.279.305.517.457 1.065.457 1.644v3.196c0 .61-.152 1.18-.457 1.713-.304.532-.708.966-1.21 1.301-.502.335-1.058.502-1.667.502zm17.17 5.708c1.004 0 1.857-.228 2.557-.685.7-.456 1.05-.959 1.05-1.507v-6.85c0-1.4.244-2.602.73-3.606.488-1.005 1.112-1.789 1.873-2.352.76-.563 1.552-.845 2.374-.845h1.324c.67 0 1.256-.304 1.759-.913.502-.609.753-1.34.753-2.192 0-.822-.251-1.537-.753-2.146-.503-.609-1.089-.913-1.759-.913h-1.324c-.76 0-1.499.205-2.214.616-.716.411-1.355.929-1.918 1.553-.563.624-.997 1.27-1.302 1.94v-1.69c0-.638-.304-1.156-.913-1.552-.609-.395-1.355-.593-2.237-.593-1.005 0-1.834.198-2.489.593-.654.396-.982.914-.982 1.553V36.49c0 .548.328 1.05.982 1.507.655.457 1.484.685 2.489.685zm15.753 9.909c2.314 0 4.17-.327 5.571-.982 1.4-.654 2.504-1.53 3.31-2.625.807-1.096 1.47-2.33 1.987-3.7.518-1.369 1.066-2.77 1.644-4.2l6.484-16.165c.122-.213.183-.472.183-.776 0-.67-.29-1.263-.868-1.78-.578-.518-1.256-.937-2.032-1.257-.776-.32-1.438-.479-1.986-.479-.366 0-.723.084-1.073.251-.35.168-.602.464-.754.89l-3.79 12.375-5.16-12.374c-.152-.427-.41-.723-.776-.89-.365-.168-.761-.252-1.187-.252-.609 0-1.286.152-2.032.457-.746.304-1.393.715-1.94 1.233-.549.517-.823 1.08-.823 1.689 0 .304.076.609.229.913l7.99 15.89c0 1.432-.25 2.55-.753 3.357-.502.807-1.126 1.385-1.872 1.735-.746.35-1.469.564-2.169.64-.7.076-1.263.114-1.69.114-.639 0-1.088.289-1.347.867-.258.579-.388 1.264-.388 2.055 0 1.34.312 2.177.936 2.512.624.335 1.393.502 2.306.502z" transform="translate(-20 -9) translate(20 9) translate(0 15)"/>
                </g>
            </g>
        </g>
    </g>
</svg>
