<svg xmlns="http://www.w3.org/2000/svg" xmlns:xlink="http://www.w3.org/1999/xlink" viewBox="0 0 40 39">
    <defs>
        <path id="s414sg94ha" d="M0.024 0.204L22.707 0.204 22.707 33.865 0.024 33.865z"/>
        <path id="3tvqyjzdsc" d="M0 0.096L5.418 0.096 5.418 5.391 0 5.391z"/>
    </defs>
    <g fill="none" fill-rule="evenodd" opacity=".9">
        <g>
            <g>
                <g>
                    <g>
                        <path fill="#484848" d="M37.772 9.27l-.638 1.619-5.526-2.243.665-1.591c.275-.554.682-.984 1.214-1.281.098-.057.19-.103.28-.141.375-.157.767-.237 1.166-.237.384 0 .762.075 1.123.221.845.343 1.477 1.04 1.736 1.914.17.567.16 1.173-.02 1.739zm-7.921 19.573c-.443-.142-1.04-.281-1.678-.281-.124 0-.246.005-.366.015l6.738-16.601 1.847.75-6.541 16.117zm-5.731 6.183l-.082-6.27c.315.236.542.497.678.776.207.426.192.917-.045 1.502-.1.245-.098.514.005.758.103.243.295.433.54.532.12.049.245.073.373.073.405 0 .766-.243.918-.618.246-.605.585-.977 1.038-1.138.188-.066.402-.1.635-.1.123 0 .251.01.385.027l-4.445 4.458zM39.69 6.966c-.43-1.453-1.483-2.614-2.89-3.185-.599-.243-1.227-.366-1.867-.366-.663 0-1.313.131-1.935.391-.16.068-.324.15-.487.243-.984.549-1.758 1.425-2.18 2.466l-3.365 8.288c-.1.245-.097.515.006.758.103.244.295.433.54.532.12.049.244.073.372.073.406 0 .766-.242.918-.618l2.057-5.067 1.848.75-6.749 16.627c-.5-.58-1.126-.985-1.645-1.25l2.433-5.994c.1-.245.098-.514-.005-.758-.103-.244-.295-.433-.54-.533-.119-.048-.244-.073-.372-.073-.406 0-.766.243-.919.619l-2.802 6.904c-.026.065-.045.132-.055.191-.005.021-.007.043-.01.079-.004.039-.008.077-.008.118l.133 10.244c.004.4.247.755.618.906.118.048.243.072.372.072.265 0 .514-.103.702-.291l7.234-7.254c.025-.024.046-.052.081-.097.016-.017.03-.035.04-.05.043-.066.076-.127.097-.184l8.222-20.256c.423-1.042.478-2.209.156-3.285z" transform="translate(-1373 -164) translate(1106 96) translate(36 68) translate(231)"/>
                        <g transform="translate(-1373 -164) translate(1106 96) translate(36 68) translate(231) translate(1.718 4.755)">
                            <mask id="stzmj0xcdb" fill="#fff">
                                <use xlink:href="#s414sg94ha"/>
                            </mask>
                            <path fill="#484848" d="M13.195 2.153c-4.17 0-7.564 3.393-7.564 7.563s3.393 7.564 7.564 7.564c4.17 0 7.564-3.393 7.564-7.564 0-4.17-3.393-7.563-7.564-7.563zM3.437 33.865c-1.882 0-3.413-1.531-3.413-3.414 0-5.363 3.206-10.146 8.17-12.185.085-.035.143-.116.15-.208.008-.092-.037-.18-.116-.228-.145-.09-.296-.19-.46-.304l-.092-.065c-.127-.09-.251-.184-.373-.28l-.08-.062c-.289-.234-.567-.487-.826-.752l-.077-.081c-.104-.109-.205-.22-.304-.333l-.082-.095c-.116-.136-.228-.275-.336-.418-.115-.153-.221-.303-.332-.469l-.06-.096c-.08-.123-.157-.248-.232-.375-.024-.042-.05-.085-.073-.129-.076-.133-.147-.268-.216-.404l-.044-.086c-.08-.165-.157-.336-.228-.506l-.04-.103c-.056-.137-.108-.276-.157-.415-.019-.053-.036-.106-.054-.16-.044-.132-.085-.266-.123-.402L4 12.156c-.05-.191-.093-.37-.128-.545l-.015-.082c-.03-.157-.056-.315-.079-.474l-.022-.177c-.017-.136-.03-.273-.041-.411l-.013-.173c-.013-.215-.02-.404-.02-.578 0-5.245 4.268-9.512 9.513-9.512s9.512 4.267 9.512 9.512c0 .174-.006.363-.019.578-.002.042-.013.173-.013.173-.01.138-.024.275-.04.411 0 0-.016.128-.024.178-.022.159-.048.316-.078.473l-.015.083c-.035.174-.077.352-.128.544l-.04.142c-.038.135-.079.268-.122.4-.018.054-.036.108-.055.16-.048.14-.1.279-.156.416l-.04.102c-.072.17-.148.34-.229.505l-.047.093c-.068.134-.138.267-.211.397l-.077.133c-.073.126-.15.25-.228.371l-.064.1c-.109.164-.214.313-.322.455l-.02.027c-.104.137-.212.27-.323.4l-.087.102c-.097.111-.196.22-.298.326l-.082.086c-.258.264-.535.516-.823.748l-.089.07c-.118.093-.239.184-.362.272l-.1.07c-.15.104-.302.206-.458.302-1.49.913-3.207 1.395-4.962 1.395-6.188 0-11.223 5.035-11.223 11.223 0 .808.657 1.465 1.465 1.465h7.319c.537 0 .974.437.974.975 0 .537-.437.974-.974.974H3.437z" mask="url(#stzmj0xcdb)"/>
                        </g>
                        <path fill="#484848" d="M16.133 38.62c-.538 0-.975-.437-.975-.974 0-.538.437-.975.975-.975.537 0 .974.437.974.975 0 .537-.437.974-.974.974M19.457 38.62c-.537 0-.974-.437-.974-.974 0-.538.437-.975.974-.975.538 0 .975.437.975.975 0 .537-.437.974-.975.974M26.832 18.72c-.537 0-.974-.436-.974-.974 0-.537.437-.974.974-.974.537 0 .975.437.975.974 0 .538-.438.975-.975.975M13.402 17.978c-.264-.133-.204-.524.082-.6l3.951-1.055c.286-.077.523.233.36.48-.447.673-1.135 1.195-1.984 1.423-.842.225-1.697.116-2.41-.248zM16.78 14.111c-.13-.505.183-1.028.698-1.166.515-.138 1.04.162 1.17.667.131.505-.182 1.028-.697 1.166-.515.136-1.04-.163-1.17-.667M12.348 16.277c-.515.138-1.04-.161-1.17-.666-.131-.505.182-1.028.697-1.166.514-.138 1.039.16 1.17.666.13.506-.182 1.028-.697 1.166" transform="translate(-1373 -164) translate(1106 96) translate(36 68) translate(231)"/>
                        <g transform="translate(-1373 -164) translate(1106 96) translate(36 68) translate(231) translate(0 19.234)">
                            <mask id="7xwm3pi0md" fill="#fff">
                                <use xlink:href="#3tvqyjzdsc"/>
                            </mask>
                            <path fill="#484848" d="M5.418 2.743c0 .417-.348.757-.774.757H3.483v1.135c0 .416-.348.756-.774.756-.426 0-.774-.34-.774-.756V3.5H.774C.348 3.5 0 3.16 0 2.743c0-.416.348-.756.774-.756h1.16V.852c0-.416.349-.756.775-.756.426 0 .774.34.774.756v1.135h1.16c.427 0 .775.34.775.756" mask="url(#7xwm3pi0md)"/>
                        </g>
                        <path fill="#484848" d="M28.567 3.941c0 .417-.348.757-.774.757h-1.161v1.135c0 .416-.348.756-.774.756-.426 0-.774-.34-.774-.756V4.698h-1.161c-.426 0-.774-.34-.774-.757 0-.416.348-.756.774-.756h1.16V2.05c0-.416.349-.756.775-.756.426 0 .774.34.774.756v1.135h1.16c.427 0 .775.34.775.756M1.741 15.361c0-.521.434-.946.968-.946s.967.425.967.946c0 .522-.433.946-.967.946s-.968-.424-.968-.946M8.67.946c0-.522.434-.946.967-.946.534 0 .968.424.968.946 0 .521-.434.945-.968.945-.533 0-.967-.424-.967-.945M15.784 2.634c0-.521.434-.945.967-.945.534 0 .968.424.968.945 0 .522-.434.946-.968.946-.533 0-.967-.424-.967-.946M33.793.946c0-.522.434-.946.968-.946.533 0 .967.424.967.946 0 .521-.434.945-.967.945-.534 0-.968-.424-.968-.945M30 36.164c0-.521.433-.945.967-.945s.967.424.967.945c0 .522-.433.946-.967.946s-.968-.424-.968-.946M36.946 24.625c0-.522.434-.946.967-.946.534 0 .968.424.968.946 0 .521-.434.945-.968.945-.533 0-.967-.424-.967-.945M4.45 6.589c-.32 0-.58-.254-.58-.567 0-.314.26-.568.58-.568.32 0 .581.254.581.568 0 .313-.259.567-.58.567m0-2.648c-1.174 0-2.129.934-2.129 2.08 0 1.147.955 2.081 2.128 2.081s2.129-.934 2.129-2.08c0-1.147-.956-2.08-2.129-2.08M36.366 32.94c-.32 0-.58-.254-.58-.567 0-.313.26-.567.58-.567.32 0 .58.254.58.567 0 .313-.258.567-.58.567m0-2.647c-1.173 0-2.129.934-2.129 2.08 0 1.147.956 2.08 2.129 2.08s2.128-.933 2.128-2.08c0-1.146-.955-2.08-2.128-2.08" transform="translate(-1373 -164) translate(1106 96) translate(36 68) translate(231)"/>
                    </g>
                </g>
            </g>
        </g>
    </g>
</svg>
