<svg xmlns="http://www.w3.org/2000/svg" width="35" height="40" viewBox="0 0 35 40">
    <g fill="none" fill-rule="evenodd">
        <g fill="#484848" fill-rule="nonzero">
            <g>
                <g transform="translate(-1378 -20) translate(1373 20) translate(5)">
                    <path d="M27.811 13.753h1.281v1.28c0 .473.382.855.854.855s.854-.382.854-.854v-1.281h1.28c.473 0 .855-.382.855-.854s-.382-.854-.854-.854H30.8v-1.281c0-.472-.382-.854-.854-.854s-.854.382-.854.854v1.28h-1.28c-.473 0-.855.383-.855.855s.382.854.854.854zM1.694 6.98h1.281v1.28c0 .473.382.855.854.855s.854-.382.854-.854V6.98h1.281c.472 0 .854-.382.854-.854s-.382-.854-.854-.854h-1.28V3.99c0-.472-.383-.854-.855-.854s-.854.382-.854.854v1.28h-1.28c-.473 0-.855.383-.855.855s.382.854.854.854zM29.434 4.998c1.294 0 2.35-1.052 2.35-2.346 0-1.295-1.051-2.35-2.35-2.35-1.3 0-2.346 1.05-2.346 2.35 0 1.294 1.051 2.346 2.346 2.346zm0-2.989c.355 0 .638.288.638.643 0 .355-.288.638-.638.638-.355 0-.638-.288-.638-.638 0-.35.287-.643.638-.643z"/>
                    <circle cx="7.353" cy="1.106" r="1.07"/>
                    <circle cx="7.353" cy="13.753" r="1.07"/>
                    <circle cx="33.537" cy="7.294" r="1.07"/>
                    <circle cx="14.324" cy="7.618" r="1.07"/>
                    <circle cx="20.733" cy="7.618" r="1.07"/>
                    <path d="M20.04 10.378c.243-.22.077-.63-.251-.63h-4.517c-.328 0-.499.41-.252.63.665.602 1.546.97 2.513.97.966 0 1.842-.368 2.507-.97z"/>
                    <path d="M33.348 17.726c-.822-.652-1.883-.89-2.903-.647l-4.301 1.01c-.463-1.001-1.106-1.932-1.888-2.714-.607-.611-.674-1.6-.157-2.3 1.254-1.704 1.789-3.817 1.505-5.938-.485-3.631-3.483-6.57-7.132-6.98-2.324-.26-4.647.472-6.378 2.018-1.73 1.546-2.723 3.762-2.723 6.081 0 1.757.553 3.434 1.6 4.845.508.683.431 1.663-.175 2.274-.783.782-1.42 1.713-1.884 2.715l-4.305-1.011c-1.02-.243-2.081-.005-2.904.647C.881 18.378.41 19.353.41 20.404v13.29c0 1.196.813 2.22 1.978 2.495l14.552 3.42c.194.045.391.067.585.067.193 0 .395-.022.584-.067l14.553-3.42c1.164-.274 1.977-1.3 1.977-2.495v-13.29c.005-1.051-.467-2.026-1.29-2.678zM12.01 16.58c1.2-1.205 1.344-3.137.337-4.495-.827-1.114-1.263-2.436-1.263-3.829 0-1.834.787-3.586 2.153-4.809 1.389-1.24 3.182-1.807 5.047-1.595 2.881.323 5.245 2.642 5.632 5.51.224 1.68-.198 3.353-1.187 4.696-1.011 1.376-.872 3.317.32 4.517.556.562 1.024 1.214 1.388 1.915l-6.715 1.577c-.125.032-.26.032-.39 0l-6.715-1.577c.368-.701.836-1.353 1.393-1.91zm20.926 17.114c0 .4-.27.742-.656.832l-14.553 3.42c-.126.032-.26.032-.391 0l-14.553-3.42c-.386-.09-.66-.432-.66-.832v-13.29c0-.525.233-1.01.647-1.339.305-.243.678-.368 1.056-.368.13 0 .265.013.395.045l12.724 2.988c.382.09.786.09 1.173 0l12.723-2.988c.513-.122 1.039 0 1.452.323.414.328.647.814.647 1.34v13.29h-.004z"/>
                    <path d="M30.8 28.036c-.472 0-.854.382-.854.854v3.114l-1.137.266c-.458.108-.746.566-.638 1.024.094.396.445.661.831.661.063 0 .13-.009.198-.022l1.465-.346c.58-.135.989-.648.989-1.245V28.89c0-.472-.382-.854-.854-.854zM30.8 24.072c-.472 0-.854.382-.854.854v1.398c0 .472.382.854.854.854s.854-.382.854-.854v-1.398c0-.472-.382-.854-.854-.854zM11.038 21.658l-1.326-.31c-.458-.108-.916.176-1.024.634-.108.458.175.917.633 1.025l1.326.31c.068.013.13.022.198.022.386 0 .737-.265.831-.66.108-.454-.18-.913-.638-1.02zM7.12 20.737l-2.15-.503c-.381-.09-.781 0-1.087.242-.31.243-.485.612-.485 1.003v6.872c0 .471.382.853.854.853s.854-.382.854-.853v-6.333l1.622.382c.459.108.917-.175 1.025-.638.108-.463-.171-.917-.634-1.025zM19.236 22.674c-.472 0-.854.382-.854.854v12.454c0 .472.382.854.854.854s.854-.382.854-.854V23.528c0-.472-.382-.854-.854-.854zM15.82 22.674c-.472 0-.854.382-.854.854v12.454c0 .472.382.854.854.854s.854-.382.854-.854V23.528c0-.472-.382-.854-.854-.854z"/>
                </g>
            </g>
        </g>
    </g>
</svg>
